<svg xmlns="http://www.w3.org/2000/svg" viewBox="0 0 1920 1200" width="1920" height="1200" role="img" aria-labelledby="t d">
<title id="t">rEach and Teach: the enrollment handshake</title>
<desc id="d">A sequence across four lanes: student, AI agent, rEach and Teach. rEach blocks every prompt, asks the student for their details without the agent seeing them, makes a key pair and a fingerprint, and receives a signed enrollment stamp from Teach.</desc>
<defs>
<radialGradient id="bg" cx="960" cy="504" r="1190" gradientUnits="userSpaceOnUse"><stop offset="0" stop-color="#1a2331"/><stop offset=".5" stop-color="#0e131c"/><stop offset="1" stop-color="#07090d"/></radialGradient>
<linearGradient id="warmcool" gradientUnits="userSpaceOnUse" x1="1640" y1="0" x2="1840" y2="0"><stop offset="0" stop-color="#f7a928"/><stop offset=".45" stop-color="#fb7185"/><stop offset="1" stop-color="#38bdf8"/></linearGradient>
<filter id="soft" x="-20%" y="-20%" width="140%" height="150%"><feGaussianBlur stdDeviation="10"/></filter>
<filter id="frostblur" x="-10%" y="-10%" width="120%" height="120%"><feGaussianBlur stdDeviation="16"/></filter>
<pattern id="hatch" width="14" height="14" patternUnits="userSpaceOnUse" patternTransform="rotate(38)"><rect width="5" height="14" fill="#d5dce6" fill-opacity="0.05"/></pattern>
<pattern id="dots" width="32" height="32" patternUnits="userSpaceOnUse"><circle cx="2" cy="2" r="1.3" fill="#2e3949" fill-opacity="0.07"/></pattern>
<marker id="ar-student" viewBox="0 0 10 10" refX="8.6" refY="5" markerWidth="6.5" markerHeight="6.5" orient="auto-start-reverse"><path d="M0 .8L10 5L0 9.2Z" fill="#f7a928"/></marker>
<marker id="ar-reach" viewBox="0 0 10 10" refX="8.6" refY="5" markerWidth="6.5" markerHeight="6.5" orient="auto-start-reverse"><path d="M0 .8L10 5L0 9.2Z" fill="#38bdf8"/></marker>
<marker id="ar-teach" viewBox="0 0 10 10" refX="8.6" refY="5" markerWidth="6.5" markerHeight="6.5" orient="auto-start-reverse"><path d="M0 .8L10 5L0 9.2Z" fill="#d5dce6"/></marker>
<marker id="ar-instructor" viewBox="0 0 10 10" refX="8.6" refY="5" markerWidth="6.5" markerHeight="6.5" orient="auto-start-reverse"><path d="M0 .8L10 5L0 9.2Z" fill="#b79cff"/></marker>
<marker id="ar-ok" viewBox="0 0 10 10" refX="8.6" refY="5" markerWidth="6.5" markerHeight="6.5" orient="auto-start-reverse"><path d="M0 .8L10 5L0 9.2Z" fill="#34d399"/></marker>
<marker id="ar-stop" viewBox="0 0 10 10" refX="8.6" refY="5" markerWidth="6.5" markerHeight="6.5" orient="auto-start-reverse"><path d="M0 .8L10 5L0 9.2Z" fill="#f87171"/></marker>
<marker id="ar-soft" viewBox="0 0 10 10" refX="8.6" refY="5" markerWidth="6.5" markerHeight="6.5" orient="auto-start-reverse"><path d="M0 .8L10 5L0 9.2Z" fill="#b3bdca"/></marker>
</defs>
<rect x="0" y="0" width="1920" height="1200" rx="0" fill="url(#bg)" />
<g fill="none" stroke="#7dd3fc" stroke-opacity="0.07" stroke-width="1"><circle cx="960" cy="624" r="346"/><circle cx="960" cy="624" r="576"/><circle cx="960" cy="624" r="845"/><circle cx="960" cy="624" r="1152"/></g>
<g fill="none" stroke="#38bdf8" stroke-opacity=".16" stroke-width="1.5" stroke-linecap="round" stroke-linejoin="round"><path d="M1920 34H1670l-22 22"/><path d="M1920 1170H1770l-26-26h-90"/><path d="M0 1178H120l20-20"/></g>
<text x="80" y="92" font-family="ui-monospace,'SF Mono',Menlo,Consolas,'Liberation Mono',monospace" font-size="15" font-weight="700" fill="#38bdf8" text-anchor="start" letter-spacing="3">FIG. 03</text>
<text x="80" y="146" font-family="Inter,-apple-system,BlinkMacSystemFont,'Segoe UI',Helvetica,Arial,sans-serif" font-size="46" font-weight="650" fill="#f3f5f8" text-anchor="start">The enrollment handshake</text>
<text x="80" y="186" font-family="Inter,-apple-system,BlinkMacSystemFont,'Segoe UI',Helvetica,Arial,sans-serif" font-size="21" font-weight="400" fill="#b3bdca" text-anchor="start">Until a student enrolls, nothing works. The agent never sees a single detail the student gives.</text>
<text x="1840" y="96" text-anchor="end" font-family="Inter,-apple-system,BlinkMacSystemFont,'Segoe UI',Helvetica,Arial,sans-serif" font-size="26" font-weight="300" fill="#f3f5f8" letter-spacing="2">r<tspan font-weight="650">E</tspan>ach <tspan fill="#6f7b8c" font-weight="300">+</tspan> <tspan font-weight="650">Teach</tspan></text>
<path d="M1645.0 112H1840" stroke="url(#warmcool)" stroke-width="3" stroke-linecap="round"/>
<rect x="1350" y="248" width="490" height="846" rx="26" fill="#000000" fill-opacity="0.27" filter="url(#soft)"/>
<rect x="1350" y="240" width="490" height="846" rx="26" fill="#121925" />
<clipPath id="fr1"><rect x="1350" y="240" width="490" height="846" rx="26"/></clipPath>
<g clip-path="url(#fr1)"><g filter="url(#frostblur)" opacity="0.2"><rect x="1759" y="943" width="140" height="81" rx="8" fill="#d5dce6"/><circle cx="1619" cy="572" r="51" fill="#38bdf8"/><path d="M1421 1032h189v78h72" fill="none" stroke="#d5dce6" stroke-width="10" stroke-linecap="round"/><rect x="1651" y="476" width="185" height="30" rx="8" fill="#b79cff"/><circle cx="1384" cy="380" r="19" fill="#d5dce6"/><path d="M1680 277h161v54h57" fill="none" stroke="#38bdf8" stroke-width="10" stroke-linecap="round"/><rect x="1417" y="566" width="174" height="90" rx="8" fill="#d5dce6"/><circle cx="1475" cy="319" r="50" fill="#b79cff"/><path d="M1373 1078h169v40h97" fill="none" stroke="#d5dce6" stroke-width="10" stroke-linecap="round"/><rect x="1377" y="1052" width="202" height="33" rx="8" fill="#38bdf8"/><circle cx="1789" cy="575" r="18" fill="#d5dce6"/><path d="M1518 736h107v35h93" fill="none" stroke="#b79cff" stroke-width="10" stroke-linecap="round"/><rect x="1677" y="930" width="61" height="29" rx="8" fill="#d5dce6"/><circle cx="1742" cy="967" r="35" fill="#38bdf8"/><path d="M1418 568h194v62h118" fill="none" stroke="#d5dce6" stroke-width="10" stroke-linecap="round"/><rect x="1625" y="330" width="77" height="69" rx="8" fill="#b79cff"/><circle cx="1368" cy="749" r="28" fill="#d5dce6"/><path d="M1653 350h120v38h108" fill="none" stroke="#38bdf8" stroke-width="10" stroke-linecap="round"/></g>
<rect x="1350" y="240" width="490" height="846" fill="#dfe7f1" fill-opacity="0.075"/>
<rect x="1350" y="240" width="490" height="846" fill="url(#hatch)"/></g>
<rect x="1350" y="240" width="490" height="846" rx="26" fill="none" stroke="#d5dce6" stroke-width="1.8" stroke-opacity="0.75" />
<rect x="1355" y="245" width="480" height="836" rx="22" fill="none" stroke="#d5dce6" stroke-width="1" stroke-opacity="0.22" stroke-dasharray="2 6" />
<circle cx="1396" cy="290" r="21.32" fill="#d5dce6" fill-opacity="0.165" stroke="#d5dce6" stroke-width="1.5" stroke-opacity="0.7"/>
<path transform="translate(1383.0 277.0) scale(1.0833)" d="M7 11V8a5 5 0 0 1 10 0v3M6 11h12a1 1 0 0 1 1 1v7a1 1 0 0 1-1 1H6a1 1 0 0 1-1-1v-7a1 1 0 0 1 1-1ZM12 15v2" fill="none" stroke="#d5dce6" stroke-width="1.57" stroke-linecap="round" stroke-linejoin="round"/>
<text x="1432" y="290" font-family="Inter,-apple-system,BlinkMacSystemFont,'Segoe UI',Helvetica,Arial,sans-serif" font-size="30" font-weight="650" fill="#f3f5f8" text-anchor="start">Teach</text>
<text x="1432" y="316" font-family="Inter,-apple-system,BlinkMacSystemFont,'Segoe UI',Helvetica,Arial,sans-serif" font-size="15" font-weight="400" fill="#b3bdca" text-anchor="start">course server · private to the instructors</text>
<line x1="240" y1="330" x2="240" y2="1070" stroke="#f7a928" stroke-width="1.5" stroke-linecap="round" stroke-opacity="0.45" stroke-dasharray="4 8"/>
<rect x="120" y="250" width="240" height="68" rx="16" fill="#121925" stroke="#f7a928" stroke-width="1.5" stroke-opacity="0.7" />
<circle cx="158" cy="284" r="18.04" fill="#f7a928" fill-opacity="0.165" stroke="#f7a928" stroke-width="1.5" stroke-opacity="0.7"/>
<path transform="translate(147.0 273.0) scale(0.9167)" d="M12 12.5a4.2 4.2 0 1 0 0-8.4 4.2 4.2 0 0 0 0 8.4ZM4 21c.6-4.2 3.8-6.3 8-6.3s7.4 2.1 8 6.3" fill="none" stroke="#f7a928" stroke-width="1.85" stroke-linecap="round" stroke-linejoin="round"/>
<text x="190" y="292" font-family="Inter,-apple-system,BlinkMacSystemFont,'Segoe UI',Helvetica,Arial,sans-serif" font-size="22" font-weight="650" fill="#f3f5f8" text-anchor="start">Student</text>
<line x1="640" y1="330" x2="640" y2="1070" stroke="#b3bdca" stroke-width="1.5" stroke-linecap="round" stroke-opacity="0.45" stroke-dasharray="4 8"/>
<rect x="520" y="250" width="240" height="68" rx="16" fill="#121925" stroke="#b3bdca" stroke-width="1.5" stroke-opacity="0.7" />
<circle cx="558" cy="284" r="18.04" fill="#b3bdca" fill-opacity="0.165" stroke="#b3bdca" stroke-width="1.5" stroke-opacity="0.7"/>
<path transform="translate(547.0 273.0) scale(0.9167)" d="M7 8h10a2 2 0 0 1 2 2v7a2 2 0 0 1-2 2H7a2 2 0 0 1-2-2v-7a2 2 0 0 1 2-2ZM12 8V4.5M9.2 13v1.6M14.8 13v1.6M2.5 12.5v3M21.5 12.5v3" fill="none" stroke="#b3bdca" stroke-width="1.85" stroke-linecap="round" stroke-linejoin="round"/>
<text x="590" y="292" font-family="Inter,-apple-system,BlinkMacSystemFont,'Segoe UI',Helvetica,Arial,sans-serif" font-size="22" font-weight="650" fill="#f3f5f8" text-anchor="start">AI agent</text>
<line x1="1040" y1="330" x2="1040" y2="1070" stroke="#38bdf8" stroke-width="1.5" stroke-linecap="round" stroke-opacity="0.45" stroke-dasharray="4 8"/>
<rect x="920" y="250" width="240" height="68" rx="16" fill="#121925" stroke="#38bdf8" stroke-width="1.5" stroke-opacity="0.7" />
<circle cx="958" cy="284" r="18.04" fill="#38bdf8" fill-opacity="0.165" stroke="#38bdf8" stroke-width="1.5" stroke-opacity="0.7"/>
<path transform="translate(947.0 273.0) scale(0.9167)" d="M12 3l8 3v6c0 4.6-3.2 8-8 9.5C7.2 20 4 16.6 4 12V6l8-3ZM8.8 12l2.3 2.3 4.3-4.6" fill="none" stroke="#38bdf8" stroke-width="1.85" stroke-linecap="round" stroke-linejoin="round"/>
<text x="990" y="292" font-family="Inter,-apple-system,BlinkMacSystemFont,'Segoe UI',Helvetica,Arial,sans-serif" font-size="22" font-weight="650" fill="#f3f5f8" text-anchor="start">rEach</text>
<line x1="1590" y1="350" x2="1590" y2="1070" stroke="#d5dce6" stroke-width="1.5" stroke-linecap="round" stroke-opacity="0.5" stroke-dasharray="4 8"/>
<rect x="520" y="352" width="640" height="54" rx="14" fill="#121925" />
<rect x="520" y="352" width="640" height="54" rx="14" fill="#f87171" fill-opacity="0.11" stroke="#f87171" stroke-width="1.4" stroke-opacity="0.7" />
<path transform="translate(539.0 368.0) scale(0.9167)" d="M7 11V8a5 5 0 0 1 10 0v3M6 11h12a1 1 0 0 1 1 1v7a1 1 0 0 1-1 1H6a1 1 0 0 1-1-1v-7a1 1 0 0 1 1-1ZM12 15v2" fill="none" stroke="#f87171" stroke-width="1.85" stroke-linecap="round" stroke-linejoin="round"/>
<text x="574" y="385" font-family="Inter,-apple-system,BlinkMacSystemFont,'Segoe UI',Helvetica,Arial,sans-serif" font-size="16" font-weight="600" fill="#f3f5f8" text-anchor="start">Locked: rEach blocks every prompt until the student enrolls</text>
<path d="M1040 462L240 462" fill="none" stroke="#38bdf8" stroke-width="2.6" stroke-linecap="round" stroke-linejoin="round" marker-end="url(#ar-reach)"/>
<circle cx="270" cy="462" r="15" fill="#38bdf8"/>
<text x="270" y="467.4" font-family="Inter,-apple-system,BlinkMacSystemFont,'Segoe UI',Helvetica,Arial,sans-serif" font-size="16" font-weight="700" fill="#0b0f16" text-anchor="middle">1</text>
<text x="298" y="448" font-family="Inter,-apple-system,BlinkMacSystemFont,'Segoe UI',Helvetica,Arial,sans-serif" font-size="16" font-weight="600" fill="#f3f5f8" text-anchor="start" paint-order="stroke" stroke="#0e131c" stroke-width="6.7" stroke-linejoin="round">asks, one at a time: course passkey, username, student ID, a password twice</text>
<path d="M240 548L1040 548" fill="none" stroke="#f7a928" stroke-width="2.6" stroke-linecap="round" stroke-linejoin="round" marker-end="url(#ar-student)"/>
<circle cx="270" cy="548" r="15" fill="#f7a928"/>
<text x="270" y="553.4" font-family="Inter,-apple-system,BlinkMacSystemFont,'Segoe UI',Helvetica,Arial,sans-serif" font-size="16" font-weight="700" fill="#0b0f16" text-anchor="middle">2</text>
<text x="298" y="534" font-family="Inter,-apple-system,BlinkMacSystemFont,'Segoe UI',Helvetica,Arial,sans-serif" font-size="16" font-weight="600" fill="#f3f5f8" text-anchor="start" paint-order="stroke" stroke="#0e131c" stroke-width="6.7" stroke-linejoin="round">answers are captured by rEach&#39;s prompt hook</text>
<rect x="538.5" y="566" width="203" height="25" rx="12.5" fill="#0e131c" />
<rect x="538.5" y="566" width="203" height="25" rx="12.5" fill="#f87171" fill-opacity="0.14300000000000002" stroke="#f87171" stroke-width="1.2" stroke-opacity="0.65" />
<text x="640.0" y="583.0" font-family="Inter,-apple-system,BlinkMacSystemFont,'Segoe UI',Helvetica,Arial,sans-serif" font-size="13" font-weight="600" fill="#f87171" text-anchor="middle">the agent never sees them</text>
<rect x="880" y="610" width="400" height="92" rx="14" fill="#121925" />
<rect x="880" y="610" width="400" height="92" rx="14" fill="#38bdf8" fill-opacity="0.11" stroke="#38bdf8" stroke-width="1.4" stroke-opacity="0.7" />
<circle cx="880" cy="656" r="15" fill="#38bdf8"/>
<text x="880" y="661.4" font-family="Inter,-apple-system,BlinkMacSystemFont,'Segoe UI',Helvetica,Arial,sans-serif" font-size="16" font-weight="700" fill="#0b0f16" text-anchor="middle">3</text>
<text x="908" y="642" font-family="Inter,-apple-system,BlinkMacSystemFont,'Segoe UI',Helvetica,Arial,sans-serif" font-size="16" font-weight="600" fill="#f3f5f8" text-anchor="start">makes an install key pair, here</text>
<text x="908" y="665" font-family="Inter,-apple-system,BlinkMacSystemFont,'Segoe UI',Helvetica,Arial,sans-serif" font-size="15" font-weight="400" fill="#b3bdca" text-anchor="start">and a scrambled fingerprint of this</text>
<text x="908" y="686" font-family="Inter,-apple-system,BlinkMacSystemFont,'Segoe UI',Helvetica,Arial,sans-serif" font-size="15" font-weight="400" fill="#b3bdca" text-anchor="start">computer and account</text>
<rect x="1192" y="620" width="76" height="23" rx="11.5" fill="#0e131c" />
<rect x="1192" y="620" width="76" height="23" rx="11.5" fill="#38bdf8" fill-opacity="0.14300000000000002" stroke="#38bdf8" stroke-width="1.2" stroke-opacity="0.65" />
<text x="1230.0" y="635.64" font-family="ui-monospace,'SF Mono',Menlo,Consolas,'Liberation Mono',monospace" font-size="12" font-weight="500" fill="#38bdf8" text-anchor="middle">RSA-4096</text>
<path d="M1040 760L1590 760" fill="none" stroke="#38bdf8" stroke-width="2.6" stroke-linecap="round" stroke-linejoin="round" marker-end="url(#ar-reach)"/>
<circle cx="1070" cy="760" r="15" fill="#38bdf8"/>
<text x="1070" y="765.4" font-family="Inter,-apple-system,BlinkMacSystemFont,'Segoe UI',Helvetica,Arial,sans-serif" font-size="16" font-weight="700" fill="#0b0f16" text-anchor="middle">4</text>
<text x="1098" y="746" font-family="Inter,-apple-system,BlinkMacSystemFont,'Segoe UI',Helvetica,Arial,sans-serif" font-size="16" font-weight="600" fill="#f3f5f8" text-anchor="start" paint-order="stroke" stroke="#0e131c" stroke-width="6.7" stroke-linejoin="round">public key, details, fingerprint</text>
<rect x="1411" y="772" width="155" height="23" rx="11.5" fill="#0e131c" />
<rect x="1411" y="772" width="155" height="23" rx="11.5" fill="#38bdf8" fill-opacity="0.14300000000000002" stroke="#38bdf8" stroke-width="1.2" stroke-opacity="0.65" />
<text x="1488.5" y="787.64" font-family="ui-monospace,'SF Mono',Menlo,Consolas,'Liberation Mono',monospace" font-size="12" font-weight="500" fill="#38bdf8" text-anchor="middle">POST /api/v1/enroll</text>
<rect x="1400" y="800" width="390" height="66" rx="14" fill="#0f151f" fill-opacity="0.62" stroke="#d5dce6" stroke-width="1.2" stroke-opacity="0.4" />
<path transform="translate(1417.0 822.0) scale(0.9167)" d="M12 12.5a4.2 4.2 0 1 0 0-8.4 4.2 4.2 0 0 0 0 8.4ZM4 21c.6-4.2 3.8-6.3 8-6.3s7.4 2.1 8 6.3" fill="none" stroke="#d5dce6" stroke-width="1.85" stroke-linecap="round" stroke-linejoin="round"/>
<text x="1452" y="830.0" font-family="Inter,-apple-system,BlinkMacSystemFont,'Segoe UI',Helvetica,Arial,sans-serif" font-size="18" font-weight="650" fill="#f3f5f8" text-anchor="start">Checks the roster</text>
<text x="1452" y="852.0" font-family="Inter,-apple-system,BlinkMacSystemFont,'Segoe UI',Helvetica,Arial,sans-serif" font-size="14" font-weight="400" fill="#b3bdca" text-anchor="start">is this student in this course?</text>
<circle cx="1772" cy="818" r="3.5" fill="#d5dce6" fill-opacity="0.8"/>
<rect x="1400" y="950" width="390" height="66" rx="14" fill="#0f151f" fill-opacity="0.62" stroke="#d5dce6" stroke-width="1.2" stroke-opacity="0.4" />
<path transform="translate(1417.0 972.0) scale(0.9167)" d="M12 3l2.2 2 3-.3.7 2.9 2.6 1.5-1.200 2.7 1.200 2.7-2.6 1.5-.7 2.9-3-.3L12 21l-2.2-2-3 .3-.7-2.9-2.6-1.5L4.7 12 3.5 9.3l2.6-1.500.7-2.9 3 .3L12 3ZM9 12l2 2 4-4.2" fill="none" stroke="#d5dce6" stroke-width="1.85" stroke-linecap="round" stroke-linejoin="round"/>
<text x="1452" y="980.0" font-family="Inter,-apple-system,BlinkMacSystemFont,'Segoe UI',Helvetica,Arial,sans-serif" font-size="18" font-weight="650" fill="#f3f5f8" text-anchor="start">Signs the stamp</text>
<text x="1452" y="1002.0" font-family="Inter,-apple-system,BlinkMacSystemFont,'Segoe UI',Helvetica,Arial,sans-serif" font-size="14" font-weight="400" fill="#b3bdca" text-anchor="start">tied to this computer&#39;s fingerprint</text>
<circle cx="1772" cy="968" r="3.5" fill="#d5dce6" fill-opacity="0.8"/>
<path d="M1590 916L1040 916" fill="none" stroke="#d5dce6" stroke-width="2.6" stroke-linecap="round" stroke-linejoin="round" marker-end="url(#ar-teach)"/>
<circle cx="1070" cy="916" r="15" fill="#d5dce6"/>
<text x="1070" y="921.4" font-family="Inter,-apple-system,BlinkMacSystemFont,'Segoe UI',Helvetica,Arial,sans-serif" font-size="16" font-weight="700" fill="#0b0f16" text-anchor="middle">5</text>
<text x="1098" y="902" font-family="Inter,-apple-system,BlinkMacSystemFont,'Segoe UI',Helvetica,Arial,sans-serif" font-size="16" font-weight="600" fill="#f3f5f8" text-anchor="start" paint-order="stroke" stroke="#0e131c" stroke-width="6.7" stroke-linejoin="round">signed enrollment stamp</text>
<rect x="1497" y="928" width="69" height="23" rx="11.5" fill="#0e131c" />
<rect x="1497" y="928" width="69" height="23" rx="11.5" fill="#d5dce6" fill-opacity="0.14300000000000002" stroke="#d5dce6" stroke-width="1.2" stroke-opacity="0.65" />
<text x="1531.5" y="943.64" font-family="ui-monospace,'SF Mono',Menlo,Consolas,'Liberation Mono',monospace" font-size="12" font-weight="500" fill="#d5dce6" text-anchor="middle">W-ENR-5</text>
<path d="M1040 996L240 996" fill="none" stroke="#38bdf8" stroke-width="2.6" stroke-linecap="round" stroke-linejoin="round" marker-end="url(#ar-reach)"/>
<circle cx="270" cy="996" r="15" fill="#38bdf8"/>
<text x="270" y="1001.4" font-family="Inter,-apple-system,BlinkMacSystemFont,'Segoe UI',Helvetica,Arial,sans-serif" font-size="16" font-weight="700" fill="#0b0f16" text-anchor="middle">6</text>
<text x="298" y="982" font-family="Inter,-apple-system,BlinkMacSystemFont,'Segoe UI',Helvetica,Arial,sans-serif" font-size="16" font-weight="600" fill="#f3f5f8" text-anchor="start" paint-order="stroke" stroke="#0e131c" stroke-width="6.7" stroke-linejoin="round">unlocked: rEach introduces itself and runs a short interview, kept on this computer</text>
<rect x="1080" y="1030" width="250" height="50" rx="12" fill="#121925" />
<rect x="1080" y="1030" width="250" height="50" rx="12" fill="#f87171" fill-opacity="0.11" stroke="#f87171" stroke-width="1.2" stroke-opacity="0.6" />
<text x="1205" y="1052" font-family="Inter,-apple-system,BlinkMacSystemFont,'Segoe UI',Helvetica,Arial,sans-serif" font-size="13" font-weight="600" fill="#f3f5f8" text-anchor="middle">A copied install fails the</text>
<text x="1205" y="1069" font-family="Inter,-apple-system,BlinkMacSystemFont,'Segoe UI',Helvetica,Arial,sans-serif" font-size="13" font-weight="600" fill="#f3f5f8" text-anchor="middle">fingerprint check and locks again</text>
<line x1="80" y1="1116" x2="1840" y2="1116" stroke="#2e3949" stroke-width="1" stroke-linecap="round"/>
<circle cx="87" cy="1149" r="7" fill="#f7a928"/>
<text x="104" y="1155" font-family="Inter,-apple-system,BlinkMacSystemFont,'Segoe UI',Helvetica,Arial,sans-serif" font-size="15" font-weight="400" fill="#b3bdca" text-anchor="start">Student</text>
<circle cx="206.125" cy="1149" r="7" fill="#38bdf8"/>
<text x="223.125" y="1155" font-family="Inter,-apple-system,BlinkMacSystemFont,'Segoe UI',Helvetica,Arial,sans-serif" font-size="15" font-weight="400" fill="#b3bdca" text-anchor="start">rEach, on the student&#39;s computer</text>
<circle cx="522.125" cy="1149" r="7" fill="#d5dce6"/>
<text x="539.125" y="1155" font-family="Inter,-apple-system,BlinkMacSystemFont,'Segoe UI',Helvetica,Arial,sans-serif" font-size="15" font-weight="400" fill="#b3bdca" text-anchor="start">Teach, the private course server</text>
<circle cx="838.125" cy="1149" r="7" fill="#b79cff"/>
<text x="855.125" y="1155" font-family="Inter,-apple-system,BlinkMacSystemFont,'Segoe UI',Helvetica,Arial,sans-serif" font-size="15" font-weight="400" fill="#b3bdca" text-anchor="start">Instructors</text>
<text x="1840" y="1155" font-family="ui-monospace,'SF Mono',Menlo,Consolas,'Liberation Mono',monospace" font-size="14" font-weight="400" fill="#6f7b8c" text-anchor="end">github.com/SteveBenner/rEach</text>
</svg>
