<svg xmlns="http://www.w3.org/2000/svg" viewBox="0 0 1920 1200" width="1920" height="1200" role="img" aria-labelledby="t d">
<title id="t">rEach and Teach: who may do what</title>
<desc id="d">A matrix of ten assets against five parties: student, AI agent, rEach, Teach and instructors. Each cell says whether that party owns or decides, has a limited role, has no access or is refused.</desc>
<defs>
<radialGradient id="bg" cx="960" cy="504" r="1190" gradientUnits="userSpaceOnUse"><stop offset="0" stop-color="#1a2331"/><stop offset=".5" stop-color="#0e131c"/><stop offset="1" stop-color="#07090d"/></radialGradient>
<linearGradient id="warmcool" gradientUnits="userSpaceOnUse" x1="1640" y1="0" x2="1840" y2="0"><stop offset="0" stop-color="#f7a928"/><stop offset=".45" stop-color="#fb7185"/><stop offset="1" stop-color="#38bdf8"/></linearGradient>
<filter id="soft" x="-20%" y="-20%" width="140%" height="150%"><feGaussianBlur stdDeviation="10"/></filter>
<filter id="frostblur" x="-10%" y="-10%" width="120%" height="120%"><feGaussianBlur stdDeviation="16"/></filter>
<pattern id="hatch" width="14" height="14" patternUnits="userSpaceOnUse" patternTransform="rotate(38)"><rect width="5" height="14" fill="#d5dce6" fill-opacity="0.05"/></pattern>
<pattern id="dots" width="32" height="32" patternUnits="userSpaceOnUse"><circle cx="2" cy="2" r="1.3" fill="#2e3949" fill-opacity="0.07"/></pattern>
<marker id="ar-student" viewBox="0 0 10 10" refX="8.6" refY="5" markerWidth="6.5" markerHeight="6.5" orient="auto-start-reverse"><path d="M0 .8L10 5L0 9.2Z" fill="#f7a928"/></marker>
<marker id="ar-reach" viewBox="0 0 10 10" refX="8.6" refY="5" markerWidth="6.5" markerHeight="6.5" orient="auto-start-reverse"><path d="M0 .8L10 5L0 9.2Z" fill="#38bdf8"/></marker>
<marker id="ar-teach" viewBox="0 0 10 10" refX="8.6" refY="5" markerWidth="6.5" markerHeight="6.5" orient="auto-start-reverse"><path d="M0 .8L10 5L0 9.2Z" fill="#d5dce6"/></marker>
<marker id="ar-instructor" viewBox="0 0 10 10" refX="8.6" refY="5" markerWidth="6.5" markerHeight="6.5" orient="auto-start-reverse"><path d="M0 .8L10 5L0 9.2Z" fill="#b79cff"/></marker>
<marker id="ar-ok" viewBox="0 0 10 10" refX="8.6" refY="5" markerWidth="6.5" markerHeight="6.5" orient="auto-start-reverse"><path d="M0 .8L10 5L0 9.2Z" fill="#34d399"/></marker>
<marker id="ar-stop" viewBox="0 0 10 10" refX="8.6" refY="5" markerWidth="6.5" markerHeight="6.5" orient="auto-start-reverse"><path d="M0 .8L10 5L0 9.2Z" fill="#f87171"/></marker>
<marker id="ar-soft" viewBox="0 0 10 10" refX="8.6" refY="5" markerWidth="6.5" markerHeight="6.5" orient="auto-start-reverse"><path d="M0 .8L10 5L0 9.2Z" fill="#b3bdca"/></marker>
</defs>
<rect x="0" y="0" width="1920" height="1200" rx="0" fill="url(#bg)" />
<g fill="none" stroke="#7dd3fc" stroke-opacity="0.07" stroke-width="1"><circle cx="960" cy="624" r="346"/><circle cx="960" cy="624" r="576"/><circle cx="960" cy="624" r="845"/><circle cx="960" cy="624" r="1152"/></g>
<g fill="none" stroke="#38bdf8" stroke-opacity=".16" stroke-width="1.5" stroke-linecap="round" stroke-linejoin="round"><path d="M1920 34H1670l-22 22"/><path d="M1920 1170H1770l-26-26h-90"/><path d="M0 1178H120l20-20"/></g>
<text x="80" y="92" font-family="ui-monospace,'SF Mono',Menlo,Consolas,'Liberation Mono',monospace" font-size="15" font-weight="700" fill="#38bdf8" text-anchor="start" letter-spacing="3">FIG. 06</text>
<text x="80" y="146" font-family="Inter,-apple-system,BlinkMacSystemFont,'Segoe UI',Helvetica,Arial,sans-serif" font-size="46" font-weight="650" fill="#f3f5f8" text-anchor="start">Who may do what</text>
<text x="80" y="186" font-family="Inter,-apple-system,BlinkMacSystemFont,'Segoe UI',Helvetica,Arial,sans-serif" font-size="21" font-weight="400" fill="#b3bdca" text-anchor="start">Ten things worth protecting, five parties, and one answer in every cell.</text>
<text x="1840" y="96" text-anchor="end" font-family="Inter,-apple-system,BlinkMacSystemFont,'Segoe UI',Helvetica,Arial,sans-serif" font-size="26" font-weight="300" fill="#f3f5f8" letter-spacing="2">r<tspan font-weight="650">E</tspan>ach <tspan fill="#6f7b8c" font-weight="300">+</tspan> <tspan font-weight="650">Teach</tspan></text>
<path d="M1645.0 112H1840" stroke="url(#warmcool)" stroke-width="3" stroke-linecap="round"/>
<rect x="1296" y="246" width="272" height="816" rx="18" fill="#dfe7f1" fill-opacity="0.0975" />
<rect x="1296" y="246" width="272" height="816" rx="18" fill="url(#hatch)" stroke="#d5dce6" stroke-width="1.4" stroke-opacity="0.6" />
<circle cx="520" cy="284" r="18.04" fill="#f7a928" fill-opacity="0.165" stroke="#f7a928" stroke-width="1.5" stroke-opacity="0.7"/>
<path transform="translate(509.0 273.0) scale(0.9167)" d="M12 12.5a4.2 4.2 0 1 0 0-8.4 4.2 4.2 0 0 0 0 8.4ZM4 21c.6-4.2 3.8-6.3 8-6.3s7.4 2.1 8 6.3" fill="none" stroke="#f7a928" stroke-width="1.85" stroke-linecap="round" stroke-linejoin="round"/>
<text x="550" y="292" font-family="Inter,-apple-system,BlinkMacSystemFont,'Segoe UI',Helvetica,Arial,sans-serif" font-size="21" font-weight="650" fill="#f3f5f8" text-anchor="start">Student</text>
<circle cx="792" cy="284" r="18.04" fill="#b3bdca" fill-opacity="0.165" stroke="#b3bdca" stroke-width="1.5" stroke-opacity="0.7"/>
<path transform="translate(781.0 273.0) scale(0.9167)" d="M7 8h10a2 2 0 0 1 2 2v7a2 2 0 0 1-2 2H7a2 2 0 0 1-2-2v-7a2 2 0 0 1 2-2ZM12 8V4.5M9.2 13v1.6M14.8 13v1.6M2.5 12.5v3M21.5 12.5v3" fill="none" stroke="#b3bdca" stroke-width="1.85" stroke-linecap="round" stroke-linejoin="round"/>
<text x="822" y="292" font-family="Inter,-apple-system,BlinkMacSystemFont,'Segoe UI',Helvetica,Arial,sans-serif" font-size="21" font-weight="650" fill="#f3f5f8" text-anchor="start">AI agent</text>
<circle cx="1064" cy="284" r="18.04" fill="#38bdf8" fill-opacity="0.165" stroke="#38bdf8" stroke-width="1.5" stroke-opacity="0.7"/>
<path transform="translate(1053.0 273.0) scale(0.9167)" d="M12 3l8 3v6c0 4.6-3.2 8-8 9.5C7.2 20 4 16.6 4 12V6l8-3ZM8.8 12l2.3 2.3 4.3-4.6" fill="none" stroke="#38bdf8" stroke-width="1.85" stroke-linecap="round" stroke-linejoin="round"/>
<text x="1094" y="292" font-family="Inter,-apple-system,BlinkMacSystemFont,'Segoe UI',Helvetica,Arial,sans-serif" font-size="21" font-weight="650" fill="#f3f5f8" text-anchor="start">rEach</text>
<circle cx="1336" cy="284" r="18.04" fill="#d5dce6" fill-opacity="0.165" stroke="#d5dce6" stroke-width="1.5" stroke-opacity="0.7"/>
<path transform="translate(1325.0 273.0) scale(0.9167)" d="M7 11V8a5 5 0 0 1 10 0v3M6 11h12a1 1 0 0 1 1 1v7a1 1 0 0 1-1 1H6a1 1 0 0 1-1-1v-7a1 1 0 0 1 1-1ZM12 15v2" fill="none" stroke="#d5dce6" stroke-width="1.85" stroke-linecap="round" stroke-linejoin="round"/>
<text x="1366" y="292" font-family="Inter,-apple-system,BlinkMacSystemFont,'Segoe UI',Helvetica,Arial,sans-serif" font-size="21" font-weight="650" fill="#f3f5f8" text-anchor="start">Teach</text>
<circle cx="1608" cy="284" r="18.04" fill="#b79cff" fill-opacity="0.165" stroke="#b79cff" stroke-width="1.5" stroke-opacity="0.7"/>
<path transform="translate(1597.0 273.0) scale(0.9167)" d="M4 5h16v11H4zM9 20h6M12 16v4M7.5 12l3-3 2.5 2 3.5-3.5" fill="none" stroke="#b79cff" stroke-width="1.85" stroke-linecap="round" stroke-linejoin="round"/>
<text x="1638" y="292" font-family="Inter,-apple-system,BlinkMacSystemFont,'Segoe UI',Helvetica,Arial,sans-serif" font-size="21" font-weight="650" fill="#f3f5f8" text-anchor="start">Instructors</text>
<text x="80" y="292" font-family="Inter,-apple-system,BlinkMacSystemFont,'Segoe UI',Helvetica,Arial,sans-serif" font-size="15" font-weight="700" fill="#6f7b8c" text-anchor="start" letter-spacing="1.2">What is protected</text>
<line x1="80" y1="322" x2="1840" y2="322" stroke="#2e3949" stroke-width="1" stroke-linecap="round"/>
<text x="80" y="354" font-family="Inter,-apple-system,BlinkMacSystemFont,'Segoe UI',Helvetica,Arial,sans-serif" font-size="19" font-weight="650" fill="#f3f5f8" text-anchor="start">Enrollment secrets</text>
<text x="80" y="376" font-family="Inter,-apple-system,BlinkMacSystemFont,'Segoe UI',Helvetica,Arial,sans-serif" font-size="14" font-weight="400" fill="#b3bdca" text-anchor="start">passkey, student ID, password</text>
<circle cx="514" cy="359" r="11" fill="#34d399"/>
<path transform="translate(507.13 352.13) scale(0.5729)" d="M5 12.5l4.5 4.5L19 7.5" fill="none" stroke="#0b0f16" stroke-width="4.54" stroke-linecap="round" stroke-linejoin="round"/>
<text x="536" y="364" font-family="Inter,-apple-system,BlinkMacSystemFont,'Segoe UI',Helvetica,Arial,sans-serif" font-size="15" font-weight="400" fill="#f3f5f8" text-anchor="start">types them, once</text>
<circle cx="786" cy="359" r="11" fill="#f87171" fill-opacity="0.16" stroke="#f87171" stroke-width="2"/>
<path transform="translate(779.95 352.95) scale(0.5042)" d="M6 6l12 12M18 6L6 18" fill="none" stroke="#f87171" stroke-width="4.76" stroke-linecap="round" stroke-linejoin="round"/>
<text x="808" y="364" font-family="Inter,-apple-system,BlinkMacSystemFont,'Segoe UI',Helvetica,Arial,sans-serif" font-size="15" font-weight="400" fill="#f3f5f8" text-anchor="start">never sees them</text>
<circle cx="1058" cy="359" r="11" fill="#f7a928" fill-opacity="0.18" stroke="#f7a928" stroke-width="2"/>
<path d="M1058 348A11 11 0 0 0 1058 370Z" fill="#f7a928"/>
<text x="1080" y="364" font-family="Inter,-apple-system,BlinkMacSystemFont,'Segoe UI',Helvetica,Arial,sans-serif" font-size="15" font-weight="400" fill="#f3f5f8" text-anchor="start">captures them at the prompt</text>
<circle cx="1330" cy="359" r="11" fill="#f7a928" fill-opacity="0.18" stroke="#f7a928" stroke-width="2"/>
<path d="M1330 348A11 11 0 0 0 1330 370Z" fill="#f7a928"/>
<text x="1352" y="364" font-family="Inter,-apple-system,BlinkMacSystemFont,'Segoe UI',Helvetica,Arial,sans-serif" font-size="15" font-weight="400" fill="#f3f5f8" text-anchor="start">checks them, keeps a hash</text>
<circle cx="1602" cy="359" r="11" fill="#34d399"/>
<path transform="translate(1595.13 352.13) scale(0.5729)" d="M5 12.5l4.5 4.5L19 7.5" fill="none" stroke="#0b0f16" stroke-width="4.54" stroke-linecap="round" stroke-linejoin="round"/>
<text x="1624" y="364" font-family="Inter,-apple-system,BlinkMacSystemFont,'Segoe UI',Helvetica,Arial,sans-serif" font-size="15" font-weight="400" fill="#f3f5f8" text-anchor="start">issue the passkey</text>
<line x1="80" y1="396" x2="1840" y2="396" stroke="#2e3949" stroke-width="1" stroke-linecap="round"/>
<text x="80" y="428" font-family="Inter,-apple-system,BlinkMacSystemFont,'Segoe UI',Helvetica,Arial,sans-serif" font-size="19" font-weight="650" fill="#f3f5f8" text-anchor="start">Owned slice files</text>
<text x="80" y="450" font-family="Inter,-apple-system,BlinkMacSystemFont,'Segoe UI',Helvetica,Arial,sans-serif" font-size="14" font-weight="400" fill="#b3bdca" text-anchor="start">the student&#39;s assignment code</text>
<circle cx="514" cy="433" r="11" fill="#34d399"/>
<path transform="translate(507.13 426.13) scale(0.5729)" d="M5 12.5l4.5 4.5L19 7.5" fill="none" stroke="#0b0f16" stroke-width="4.54" stroke-linecap="round" stroke-linejoin="round"/>
<text x="536" y="438" font-family="Inter,-apple-system,BlinkMacSystemFont,'Segoe UI',Helvetica,Arial,sans-serif" font-size="15" font-weight="400" fill="#f3f5f8" text-anchor="start">directs the work</text>
<circle cx="786" cy="433" r="11" fill="#f7a928" fill-opacity="0.18" stroke="#f7a928" stroke-width="2"/>
<path d="M786 422A11 11 0 0 0 786 444Z" fill="#f7a928"/>
<text x="808" y="438" font-family="Inter,-apple-system,BlinkMacSystemFont,'Segoe UI',Helvetica,Arial,sans-serif" font-size="15" font-weight="400" fill="#f3f5f8" text-anchor="start">writes, inside the fence</text>
<circle cx="1058" cy="433" r="11" fill="#f7a928" fill-opacity="0.18" stroke="#f7a928" stroke-width="2"/>
<path d="M1058 422A11 11 0 0 0 1058 444Z" fill="#f7a928"/>
<text x="1080" y="438" font-family="Inter,-apple-system,BlinkMacSystemFont,'Segoe UI',Helvetica,Arial,sans-serif" font-size="15" font-weight="400" fill="#f3f5f8" text-anchor="start">gates, checks, seals</text>
<circle cx="1330" cy="433" r="11" fill="#f7a928" fill-opacity="0.18" stroke="#f7a928" stroke-width="2"/>
<path d="M1330 422A11 11 0 0 0 1330 444Z" fill="#f7a928"/>
<text x="1352" y="438" font-family="Inter,-apple-system,BlinkMacSystemFont,'Segoe UI',Helvetica,Arial,sans-serif" font-size="15" font-weight="400" fill="#f3f5f8" text-anchor="start">receives on submit</text>
<circle cx="1602" cy="433" r="11" fill="#34d399"/>
<path transform="translate(1595.13 426.13) scale(0.5729)" d="M5 12.5l4.5 4.5L19 7.5" fill="none" stroke="#0b0f16" stroke-width="4.54" stroke-linecap="round" stroke-linejoin="round"/>
<text x="1624" y="438" font-family="Inter,-apple-system,BlinkMacSystemFont,'Segoe UI',Helvetica,Arial,sans-serif" font-size="15" font-weight="400" fill="#f3f5f8" text-anchor="start">review and grade</text>
<line x1="80" y1="470" x2="1840" y2="470" stroke="#2e3949" stroke-width="1" stroke-linecap="round"/>
<text x="80" y="502" font-family="Inter,-apple-system,BlinkMacSystemFont,'Segoe UI',Helvetica,Arial,sans-serif" font-size="19" font-weight="650" fill="#f3f5f8" text-anchor="start">Other course files</text>
<text x="80" y="524" font-family="Inter,-apple-system,BlinkMacSystemFont,'Segoe UI',Helvetica,Arial,sans-serif" font-size="14" font-weight="400" fill="#b3bdca" text-anchor="start">read-only material, other slices</text>
<circle cx="514" cy="507" r="11" fill="#f7a928" fill-opacity="0.18" stroke="#f7a928" stroke-width="2"/>
<path d="M514 496A11 11 0 0 0 514 518Z" fill="#f7a928"/>
<text x="536" y="512" font-family="Inter,-apple-system,BlinkMacSystemFont,'Segoe UI',Helvetica,Arial,sans-serif" font-size="15" font-weight="400" fill="#f3f5f8" text-anchor="start">may read</text>
<circle cx="786" cy="507" r="11" fill="#f7a928" fill-opacity="0.18" stroke="#f7a928" stroke-width="2"/>
<path d="M786 496A11 11 0 0 0 786 518Z" fill="#f7a928"/>
<text x="808" y="512" font-family="Inter,-apple-system,BlinkMacSystemFont,'Segoe UI',Helvetica,Arial,sans-serif" font-size="15" font-weight="400" fill="#f3f5f8" text-anchor="start">may read, never write</text>
<circle cx="1058" cy="507" r="11" fill="#34d399"/>
<path transform="translate(1051.13 500.13) scale(0.5729)" d="M5 12.5l4.5 4.5L19 7.5" fill="none" stroke="#0b0f16" stroke-width="4.54" stroke-linecap="round" stroke-linejoin="round"/>
<text x="1080" y="512" font-family="Inter,-apple-system,BlinkMacSystemFont,'Segoe UI',Helvetica,Arial,sans-serif" font-size="15" font-weight="400" fill="#f3f5f8" text-anchor="start">enforces read-only</text>
<circle cx="1330" cy="507" r="11" fill="#34d399"/>
<path transform="translate(1323.13 500.13) scale(0.5729)" d="M5 12.5l4.5 4.5L19 7.5" fill="none" stroke="#0b0f16" stroke-width="4.54" stroke-linecap="round" stroke-linejoin="round"/>
<text x="1352" y="512" font-family="Inter,-apple-system,BlinkMacSystemFont,'Segoe UI',Helvetica,Arial,sans-serif" font-size="15" font-weight="400" fill="#f3f5f8" text-anchor="start">delivers them sealed</text>
<circle cx="1602" cy="507" r="11" fill="#34d399"/>
<path transform="translate(1595.13 500.13) scale(0.5729)" d="M5 12.5l4.5 4.5L19 7.5" fill="none" stroke="#0b0f16" stroke-width="4.54" stroke-linecap="round" stroke-linejoin="round"/>
<text x="1624" y="512" font-family="Inter,-apple-system,BlinkMacSystemFont,'Segoe UI',Helvetica,Arial,sans-serif" font-size="15" font-weight="400" fill="#f3f5f8" text-anchor="start">author them</text>
<line x1="80" y1="544" x2="1840" y2="544" stroke="#2e3949" stroke-width="1" stroke-linecap="round"/>
<text x="80" y="576" font-family="Inter,-apple-system,BlinkMacSystemFont,'Segoe UI',Helvetica,Arial,sans-serif" font-size="19" font-weight="650" fill="#f3f5f8" text-anchor="start">Keys and vault</text>
<text x="80" y="598" font-family="Inter,-apple-system,BlinkMacSystemFont,'Segoe UI',Helvetica,Arial,sans-serif" font-size="14" font-weight="400" fill="#b3bdca" text-anchor="start">install key, unsealed materials</text>
<circle cx="514" cy="581" r="11" fill="none" stroke="#6f7b8c" stroke-width="2"/>
<text x="536" y="586" font-family="Inter,-apple-system,BlinkMacSystemFont,'Segoe UI',Helvetica,Arial,sans-serif" font-size="15" font-weight="400" fill="#6f7b8c" text-anchor="start">no need to touch</text>
<circle cx="786" cy="581" r="11" fill="#f87171" fill-opacity="0.16" stroke="#f87171" stroke-width="2"/>
<path transform="translate(779.95 574.95) scale(0.5042)" d="M6 6l12 12M18 6L6 18" fill="none" stroke="#f87171" stroke-width="4.76" stroke-linecap="round" stroke-linejoin="round"/>
<text x="808" y="586" font-family="Inter,-apple-system,BlinkMacSystemFont,'Segoe UI',Helvetica,Arial,sans-serif" font-size="15" font-weight="400" fill="#f3f5f8" text-anchor="start">refused</text>
<circle cx="1058" cy="581" r="11" fill="#34d399"/>
<path transform="translate(1051.13 574.13) scale(0.5729)" d="M5 12.5l4.5 4.5L19 7.5" fill="none" stroke="#0b0f16" stroke-width="4.54" stroke-linecap="round" stroke-linejoin="round"/>
<text x="1080" y="586" font-family="Inter,-apple-system,BlinkMacSystemFont,'Segoe UI',Helvetica,Arial,sans-serif" font-size="15" font-weight="400" fill="#f3f5f8" text-anchor="start">the only user</text>
<circle cx="1330" cy="581" r="11" fill="none" stroke="#6f7b8c" stroke-width="2"/>
<text x="1352" y="586" font-family="Inter,-apple-system,BlinkMacSystemFont,'Segoe UI',Helvetica,Arial,sans-serif" font-size="15" font-weight="400" fill="#6f7b8c" text-anchor="start">never gets the key</text>
<circle cx="1602" cy="581" r="11" fill="none" stroke="#6f7b8c" stroke-width="2"/>
<text x="1624" y="586" font-family="Inter,-apple-system,BlinkMacSystemFont,'Segoe UI',Helvetica,Arial,sans-serif" font-size="15" font-weight="400" fill="#6f7b8c" text-anchor="start">no access</text>
<line x1="80" y1="618" x2="1840" y2="618" stroke="#2e3949" stroke-width="1" stroke-linecap="round"/>
<text x="80" y="650" font-family="Inter,-apple-system,BlinkMacSystemFont,'Segoe UI',Helvetica,Arial,sans-serif" font-size="19" font-weight="650" fill="#f3f5f8" text-anchor="start">Course rules</text>
<text x="80" y="672" font-family="Inter,-apple-system,BlinkMacSystemFont,'Segoe UI',Helvetica,Arial,sans-serif" font-size="14" font-weight="400" fill="#b3bdca" text-anchor="start">guardrails and directives</text>
<circle cx="514" cy="655" r="11" fill="#f7a928" fill-opacity="0.18" stroke="#f7a928" stroke-width="2"/>
<path d="M514 644A11 11 0 0 0 514 666Z" fill="#f7a928"/>
<text x="536" y="660" font-family="Inter,-apple-system,BlinkMacSystemFont,'Segoe UI',Helvetica,Arial,sans-serif" font-size="15" font-weight="400" fill="#f3f5f8" text-anchor="start">can read them</text>
<circle cx="786" cy="655" r="11" fill="#f7a928" fill-opacity="0.18" stroke="#f7a928" stroke-width="2"/>
<path d="M786 644A11 11 0 0 0 786 666Z" fill="#f7a928"/>
<text x="808" y="660" font-family="Inter,-apple-system,BlinkMacSystemFont,'Segoe UI',Helvetica,Arial,sans-serif" font-size="15" font-weight="400" fill="#f3f5f8" text-anchor="start">must follow them</text>
<circle cx="1058" cy="655" r="11" fill="#f7a928" fill-opacity="0.18" stroke="#f7a928" stroke-width="2"/>
<path d="M1058 644A11 11 0 0 0 1058 666Z" fill="#f7a928"/>
<text x="1080" y="660" font-family="Inter,-apple-system,BlinkMacSystemFont,'Segoe UI',Helvetica,Arial,sans-serif" font-size="15" font-weight="400" fill="#f3f5f8" text-anchor="start">verifies, enforces</text>
<circle cx="1330" cy="655" r="11" fill="#34d399"/>
<path transform="translate(1323.13 648.13) scale(0.5729)" d="M5 12.5l4.5 4.5L19 7.5" fill="none" stroke="#0b0f16" stroke-width="4.54" stroke-linecap="round" stroke-linejoin="round"/>
<text x="1352" y="660" font-family="Inter,-apple-system,BlinkMacSystemFont,'Segoe UI',Helvetica,Arial,sans-serif" font-size="15" font-weight="400" fill="#f3f5f8" text-anchor="start">signs and delivers</text>
<circle cx="1602" cy="655" r="11" fill="#34d399"/>
<path transform="translate(1595.13 648.13) scale(0.5729)" d="M5 12.5l4.5 4.5L19 7.5" fill="none" stroke="#0b0f16" stroke-width="4.54" stroke-linecap="round" stroke-linejoin="round"/>
<text x="1624" y="660" font-family="Inter,-apple-system,BlinkMacSystemFont,'Segoe UI',Helvetica,Arial,sans-serif" font-size="15" font-weight="400" fill="#f3f5f8" text-anchor="start">author them</text>
<line x1="80" y1="692" x2="1840" y2="692" stroke="#2e3949" stroke-width="1" stroke-linecap="round"/>
<text x="80" y="724" font-family="Inter,-apple-system,BlinkMacSystemFont,'Segoe UI',Helvetica,Arial,sans-serif" font-size="19" font-weight="650" fill="#f3f5f8" text-anchor="start">Hidden checks</text>
<text x="80" y="746" font-family="Inter,-apple-system,BlinkMacSystemFont,'Segoe UI',Helvetica,Arial,sans-serif" font-size="14" font-weight="400" fill="#b3bdca" text-anchor="start">what grading looks for</text>
<circle cx="514" cy="729" r="11" fill="none" stroke="#6f7b8c" stroke-width="2"/>
<text x="536" y="734" font-family="Inter,-apple-system,BlinkMacSystemFont,'Segoe UI',Helvetica,Arial,sans-serif" font-size="15" font-weight="400" fill="#6f7b8c" text-anchor="start">sees results only</text>
<circle cx="786" cy="729" r="11" fill="#f87171" fill-opacity="0.16" stroke="#f87171" stroke-width="2"/>
<path transform="translate(779.95 722.95) scale(0.5042)" d="M6 6l12 12M18 6L6 18" fill="none" stroke="#f87171" stroke-width="4.76" stroke-linecap="round" stroke-linejoin="round"/>
<text x="808" y="734" font-family="Inter,-apple-system,BlinkMacSystemFont,'Segoe UI',Helvetica,Arial,sans-serif" font-size="15" font-weight="400" fill="#f3f5f8" text-anchor="start">never sees them</text>
<circle cx="1058" cy="729" r="11" fill="none" stroke="#6f7b8c" stroke-width="2"/>
<text x="1080" y="734" font-family="Inter,-apple-system,BlinkMacSystemFont,'Segoe UI',Helvetica,Arial,sans-serif" font-size="15" font-weight="400" fill="#6f7b8c" text-anchor="start">sees results only</text>
<circle cx="1330" cy="729" r="11" fill="#34d399"/>
<path transform="translate(1323.13 722.13) scale(0.5729)" d="M5 12.5l4.5 4.5L19 7.5" fill="none" stroke="#0b0f16" stroke-width="4.54" stroke-linecap="round" stroke-linejoin="round"/>
<text x="1352" y="734" font-family="Inter,-apple-system,BlinkMacSystemFont,'Segoe UI',Helvetica,Arial,sans-serif" font-size="15" font-weight="400" fill="#f3f5f8" text-anchor="start">holds and runs them</text>
<circle cx="1602" cy="729" r="11" fill="#34d399"/>
<path transform="translate(1595.13 722.13) scale(0.5729)" d="M5 12.5l4.5 4.5L19 7.5" fill="none" stroke="#0b0f16" stroke-width="4.54" stroke-linecap="round" stroke-linejoin="round"/>
<text x="1624" y="734" font-family="Inter,-apple-system,BlinkMacSystemFont,'Segoe UI',Helvetica,Arial,sans-serif" font-size="15" font-weight="400" fill="#f3f5f8" text-anchor="start">author them</text>
<line x1="80" y1="766" x2="1840" y2="766" stroke="#2e3949" stroke-width="1" stroke-linecap="round"/>
<text x="80" y="798" font-family="Inter,-apple-system,BlinkMacSystemFont,'Segoe UI',Helvetica,Arial,sans-serif" font-size="19" font-weight="650" fill="#f3f5f8" text-anchor="start">The conversation</text>
<text x="80" y="820" font-family="Inter,-apple-system,BlinkMacSystemFont,'Segoe UI',Helvetica,Arial,sans-serif" font-size="14" font-weight="400" fill="#b3bdca" text-anchor="start">prompts, replies, reasoning</text>
<circle cx="514" cy="803" r="11" fill="#34d399"/>
<path transform="translate(507.13 796.13) scale(0.5729)" d="M5 12.5l4.5 4.5L19 7.5" fill="none" stroke="#0b0f16" stroke-width="4.54" stroke-linecap="round" stroke-linejoin="round"/>
<text x="536" y="808" font-family="Inter,-apple-system,BlinkMacSystemFont,'Segoe UI',Helvetica,Arial,sans-serif" font-size="15" font-weight="400" fill="#f3f5f8" text-anchor="start">theirs</text>
<circle cx="786" cy="803" r="11" fill="#34d399"/>
<path transform="translate(779.13 796.13) scale(0.5729)" d="M5 12.5l4.5 4.5L19 7.5" fill="none" stroke="#0b0f16" stroke-width="4.54" stroke-linecap="round" stroke-linejoin="round"/>
<text x="808" y="808" font-family="Inter,-apple-system,BlinkMacSystemFont,'Segoe UI',Helvetica,Arial,sans-serif" font-size="15" font-weight="400" fill="#f3f5f8" text-anchor="start">takes part</text>
<circle cx="1058" cy="803" r="11" fill="none" stroke="#6f7b8c" stroke-width="2"/>
<text x="1080" y="808" font-family="Inter,-apple-system,BlinkMacSystemFont,'Segoe UI',Helvetica,Arial,sans-serif" font-size="15" font-weight="400" fill="#6f7b8c" text-anchor="start">records nothing</text>
<circle cx="1330" cy="803" r="11" fill="none" stroke="#6f7b8c" stroke-width="2"/>
<text x="1352" y="808" font-family="Inter,-apple-system,BlinkMacSystemFont,'Segoe UI',Helvetica,Arial,sans-serif" font-size="15" font-weight="400" fill="#6f7b8c" text-anchor="start">receives nothing</text>
<circle cx="1602" cy="803" r="11" fill="none" stroke="#6f7b8c" stroke-width="2"/>
<text x="1624" y="808" font-family="Inter,-apple-system,BlinkMacSystemFont,'Segoe UI',Helvetica,Arial,sans-serif" font-size="15" font-weight="400" fill="#6f7b8c" text-anchor="start">see nothing</text>
<line x1="80" y1="840" x2="1840" y2="840" stroke="#2e3949" stroke-width="1" stroke-linecap="round"/>
<text x="80" y="872" font-family="Inter,-apple-system,BlinkMacSystemFont,'Segoe UI',Helvetica,Arial,sans-serif" font-size="19" font-weight="650" fill="#f3f5f8" text-anchor="start">Decision to submit</text>
<text x="80" y="894" font-family="Inter,-apple-system,BlinkMacSystemFont,'Segoe UI',Helvetica,Arial,sans-serif" font-size="14" font-weight="400" fill="#b3bdca" text-anchor="start">what goes in, and when</text>
<circle cx="514" cy="877" r="11" fill="#34d399"/>
<path transform="translate(507.13 870.13) scale(0.5729)" d="M5 12.5l4.5 4.5L19 7.5" fill="none" stroke="#0b0f16" stroke-width="4.54" stroke-linecap="round" stroke-linejoin="round"/>
<text x="536" y="882" font-family="Inter,-apple-system,BlinkMacSystemFont,'Segoe UI',Helvetica,Arial,sans-serif" font-size="15" font-weight="400" fill="#f3f5f8" text-anchor="start">says yes or no</text>
<circle cx="786" cy="877" r="11" fill="#f7a928" fill-opacity="0.18" stroke="#f7a928" stroke-width="2"/>
<path d="M786 866A11 11 0 0 0 786 888Z" fill="#f7a928"/>
<text x="808" y="882" font-family="Inter,-apple-system,BlinkMacSystemFont,'Segoe UI',Helvetica,Arial,sans-serif" font-size="15" font-weight="400" fill="#f3f5f8" text-anchor="start">relays the question</text>
<circle cx="1058" cy="877" r="11" fill="#f7a928" fill-opacity="0.18" stroke="#f7a928" stroke-width="2"/>
<path d="M1058 866A11 11 0 0 0 1058 888Z" fill="#f7a928"/>
<text x="1080" y="882" font-family="Inter,-apple-system,BlinkMacSystemFont,'Segoe UI',Helvetica,Arial,sans-serif" font-size="15" font-weight="400" fill="#f3f5f8" text-anchor="start">asks, enforces the yes</text>
<circle cx="1330" cy="877" r="11" fill="#f7a928" fill-opacity="0.18" stroke="#f7a928" stroke-width="2"/>
<path d="M1330 866A11 11 0 0 0 1330 888Z" fill="#f7a928"/>
<text x="1352" y="882" font-family="Inter,-apple-system,BlinkMacSystemFont,'Segoe UI',Helvetica,Arial,sans-serif" font-size="15" font-weight="400" fill="#f3f5f8" text-anchor="start">issues the receipt</text>
<circle cx="1602" cy="877" r="11" fill="#f7a928" fill-opacity="0.18" stroke="#f7a928" stroke-width="2"/>
<path d="M1602 866A11 11 0 0 0 1602 888Z" fill="#f7a928"/>
<text x="1624" y="882" font-family="Inter,-apple-system,BlinkMacSystemFont,'Segoe UI',Helvetica,Arial,sans-serif" font-size="15" font-weight="400" fill="#f3f5f8" text-anchor="start">set the due time</text>
<line x1="80" y1="914" x2="1840" y2="914" stroke="#2e3949" stroke-width="1" stroke-linecap="round"/>
<text x="80" y="946" font-family="Inter,-apple-system,BlinkMacSystemFont,'Segoe UI',Helvetica,Arial,sans-serif" font-size="19" font-weight="650" fill="#f3f5f8" text-anchor="start">Private memory</text>
<text x="80" y="968" font-family="Inter,-apple-system,BlinkMacSystemFont,'Segoe UI',Helvetica,Arial,sans-serif" font-size="14" font-weight="400" fill="#b3bdca" text-anchor="start">what rEach learns of the student</text>
<circle cx="514" cy="951" r="11" fill="#34d399"/>
<path transform="translate(507.13 944.13) scale(0.5729)" d="M5 12.5l4.5 4.5L19 7.5" fill="none" stroke="#0b0f16" stroke-width="4.54" stroke-linecap="round" stroke-linejoin="round"/>
<text x="536" y="956" font-family="Inter,-apple-system,BlinkMacSystemFont,'Segoe UI',Helvetica,Arial,sans-serif" font-size="15" font-weight="400" fill="#f3f5f8" text-anchor="start">sees, exports, erases</text>
<circle cx="786" cy="951" r="11" fill="#f7a928" fill-opacity="0.18" stroke="#f7a928" stroke-width="2"/>
<path d="M786 940A11 11 0 0 0 786 962Z" fill="#f7a928"/>
<text x="808" y="956" font-family="Inter,-apple-system,BlinkMacSystemFont,'Segoe UI',Helvetica,Arial,sans-serif" font-size="15" font-weight="400" fill="#f3f5f8" text-anchor="start">records findings</text>
<circle cx="1058" cy="951" r="11" fill="#34d399"/>
<path transform="translate(1051.13 944.13) scale(0.5729)" d="M5 12.5l4.5 4.5L19 7.5" fill="none" stroke="#0b0f16" stroke-width="4.54" stroke-linecap="round" stroke-linejoin="round"/>
<text x="1080" y="956" font-family="Inter,-apple-system,BlinkMacSystemFont,'Segoe UI',Helvetica,Arial,sans-serif" font-size="15" font-weight="400" fill="#f3f5f8" text-anchor="start">keeps it on the computer</text>
<circle cx="1330" cy="951" r="11" fill="none" stroke="#6f7b8c" stroke-width="2"/>
<text x="1352" y="956" font-family="Inter,-apple-system,BlinkMacSystemFont,'Segoe UI',Helvetica,Arial,sans-serif" font-size="15" font-weight="400" fill="#6f7b8c" text-anchor="start">never receives it</text>
<circle cx="1602" cy="951" r="11" fill="none" stroke="#6f7b8c" stroke-width="2"/>
<text x="1624" y="956" font-family="Inter,-apple-system,BlinkMacSystemFont,'Segoe UI',Helvetica,Arial,sans-serif" font-size="15" font-weight="400" fill="#6f7b8c" text-anchor="start">never receive it</text>
<line x1="80" y1="988" x2="1840" y2="988" stroke="#2e3949" stroke-width="1" stroke-linecap="round"/>
<text x="80" y="1020" font-family="Inter,-apple-system,BlinkMacSystemFont,'Segoe UI',Helvetica,Arial,sans-serif" font-size="19" font-weight="650" fill="#f3f5f8" text-anchor="start">The grade</text>
<text x="80" y="1042" font-family="Inter,-apple-system,BlinkMacSystemFont,'Segoe UI',Helvetica,Arial,sans-serif" font-size="14" font-weight="400" fill="#b3bdca" text-anchor="start">points on record</text>
<circle cx="514" cy="1025" r="11" fill="#f7a928" fill-opacity="0.18" stroke="#f7a928" stroke-width="2"/>
<path d="M514 1014A11 11 0 0 0 514 1036Z" fill="#f7a928"/>
<text x="536" y="1030" font-family="Inter,-apple-system,BlinkMacSystemFont,'Segoe UI',Helvetica,Arial,sans-serif" font-size="15" font-weight="400" fill="#f3f5f8" text-anchor="start">reads it</text>
<circle cx="786" cy="1025" r="11" fill="none" stroke="#6f7b8c" stroke-width="2"/>
<text x="808" y="1030" font-family="Inter,-apple-system,BlinkMacSystemFont,'Segoe UI',Helvetica,Arial,sans-serif" font-size="15" font-weight="400" fill="#6f7b8c" text-anchor="start">no part in it</text>
<circle cx="1058" cy="1025" r="11" fill="#f7a928" fill-opacity="0.18" stroke="#f7a928" stroke-width="2"/>
<path d="M1058 1014A11 11 0 0 0 1058 1036Z" fill="#f7a928"/>
<text x="1080" y="1030" font-family="Inter,-apple-system,BlinkMacSystemFont,'Segoe UI',Helvetica,Arial,sans-serif" font-size="15" font-weight="400" fill="#f3f5f8" text-anchor="start">shows it</text>
<circle cx="1330" cy="1025" r="11" fill="#34d399"/>
<path transform="translate(1323.13 1018.13) scale(0.5729)" d="M5 12.5l4.5 4.5L19 7.5" fill="none" stroke="#0b0f16" stroke-width="4.54" stroke-linecap="round" stroke-linejoin="round"/>
<text x="1352" y="1030" font-family="Inter,-apple-system,BlinkMacSystemFont,'Segoe UI',Helvetica,Arial,sans-serif" font-size="15" font-weight="400" fill="#f3f5f8" text-anchor="start">holds the points</text>
<circle cx="1602" cy="1025" r="11" fill="#34d399"/>
<path transform="translate(1595.13 1018.13) scale(0.5729)" d="M5 12.5l4.5 4.5L19 7.5" fill="none" stroke="#0b0f16" stroke-width="4.54" stroke-linecap="round" stroke-linejoin="round"/>
<text x="1624" y="1030" font-family="Inter,-apple-system,BlinkMacSystemFont,'Segoe UI',Helvetica,Arial,sans-serif" font-size="15" font-weight="400" fill="#f3f5f8" text-anchor="start">record it</text>
<circle cx="92" cy="1096" r="11" fill="#34d399"/>
<path transform="translate(85.13 1089.13) scale(0.5729)" d="M5 12.5l4.5 4.5L19 7.5" fill="none" stroke="#0b0f16" stroke-width="4.54" stroke-linecap="round" stroke-linejoin="round"/>
<text x="114" y="1101" font-family="Inter,-apple-system,BlinkMacSystemFont,'Segoe UI',Helvetica,Arial,sans-serif" font-size="15" font-weight="400" fill="#b3bdca" text-anchor="start">owns or decides</text>
<circle cx="342" cy="1096" r="11" fill="#f7a928" fill-opacity="0.18" stroke="#f7a928" stroke-width="2"/>
<path d="M342 1085A11 11 0 0 0 342 1107Z" fill="#f7a928"/>
<text x="364" y="1101" font-family="Inter,-apple-system,BlinkMacSystemFont,'Segoe UI',Helvetica,Arial,sans-serif" font-size="15" font-weight="400" fill="#b3bdca" text-anchor="start">a limited role</text>
<circle cx="592" cy="1096" r="11" fill="none" stroke="#6f7b8c" stroke-width="2"/>
<text x="614" y="1101" font-family="Inter,-apple-system,BlinkMacSystemFont,'Segoe UI',Helvetica,Arial,sans-serif" font-size="15" font-weight="400" fill="#b3bdca" text-anchor="start">no access, by design</text>
<circle cx="842" cy="1096" r="11" fill="#f87171" fill-opacity="0.16" stroke="#f87171" stroke-width="2"/>
<path transform="translate(835.95 1089.95) scale(0.5042)" d="M6 6l12 12M18 6L6 18" fill="none" stroke="#f87171" stroke-width="4.76" stroke-linecap="round" stroke-linejoin="round"/>
<text x="864" y="1101" font-family="Inter,-apple-system,BlinkMacSystemFont,'Segoe UI',Helvetica,Arial,sans-serif" font-size="15" font-weight="400" fill="#b3bdca" text-anchor="start">refused if it tries</text>
<text x="1840" y="1101" font-family="Inter,-apple-system,BlinkMacSystemFont,'Segoe UI',Helvetica,Arial,sans-serif" font-size="14" font-weight="400" fill="#6f7b8c" text-anchor="end" font-style="italic">The Teach column states outcomes only. How the server does it stays private.</text>
<line x1="80" y1="1116" x2="1840" y2="1116" stroke="#2e3949" stroke-width="1" stroke-linecap="round"/>
<circle cx="87" cy="1149" r="7" fill="#f7a928"/>
<text x="104" y="1155" font-family="Inter,-apple-system,BlinkMacSystemFont,'Segoe UI',Helvetica,Arial,sans-serif" font-size="15" font-weight="400" fill="#b3bdca" text-anchor="start">Student</text>
<circle cx="206.125" cy="1149" r="7" fill="#38bdf8"/>
<text x="223.125" y="1155" font-family="Inter,-apple-system,BlinkMacSystemFont,'Segoe UI',Helvetica,Arial,sans-serif" font-size="15" font-weight="400" fill="#b3bdca" text-anchor="start">rEach, on the student&#39;s computer</text>
<circle cx="522.125" cy="1149" r="7" fill="#d5dce6"/>
<text x="539.125" y="1155" font-family="Inter,-apple-system,BlinkMacSystemFont,'Segoe UI',Helvetica,Arial,sans-serif" font-size="15" font-weight="400" fill="#b3bdca" text-anchor="start">Teach, the private course server</text>
<circle cx="838.125" cy="1149" r="7" fill="#b79cff"/>
<text x="855.125" y="1155" font-family="Inter,-apple-system,BlinkMacSystemFont,'Segoe UI',Helvetica,Arial,sans-serif" font-size="15" font-weight="400" fill="#b3bdca" text-anchor="start">Instructors</text>
<text x="1840" y="1155" font-family="ui-monospace,'SF Mono',Menlo,Consolas,'Liberation Mono',monospace" font-size="14" font-weight="400" fill="#6f7b8c" text-anchor="end">github.com/SteveBenner/rEach</text>
</svg>
